# xmcd
#
# Track frame offsets: 
#        150
#        13130
#        31837
#        47245
#        67512
#        83945
#        101270
#        122345
#        139372
#        149567
#        163600
#        183945
#        207572
#
# Disc length: 2882 seconds
#
# Revision: 0
# Processed by: cddbd v1.5.2PL0 Copyright (c) Steve Scherf et al.
# Submitted via: ExactAudioCopyFreeDBPlugin 1.0
#
DISCID=af0b400d
DTITLE=Trash Mavericks - Off The Tracks
DYEAR=2000
DGENRE=Country
TTITLE0=Blood From A Stone
TTITLE1=Cattitude
TTITLE2=Hurricane
TTITLE3=This Too Shall Pass
TTITLE4=Pray Loud (Sometimes You Gotta)
TTITLE5=Miracle Man
TTITLE6=Novocaine, Alcohol And You
TTITLE7=Closing Down The Warehouse
TTITLE8=Letter From Spain
TTITLE9=I Ain't Ever Satisfied
TTITLE10=Crown Of Thorns
TTITLE11=Off The Tracks
TTITLE12=The Letter
EXTD=
EXTT0=
EXTT1=
EXTT2=
EXTT3=
EXTT4=
EXTT5=
EXTT6=
EXTT7=
EXTT8=
EXTT9=
EXTT10=
EXTT11=
EXTT12=
PLAYORDER=
